<svg xmlns="http://www.w3.org/2000/svg" id="logo" viewBox="0 0 100 100">
    <defs>
        <style>
            .cls-1{fill:none}.cls-2{fill:#fff}.cls-3{clip-path:url(#clip-path)}.cls-4{fill:#5bb0b6}.cls-5{fill:#e88282}
        </style>
        <clipPath id="clip-path">
            <path d="M15 10.82h70v78.36H15z" class="cls-1"/>
        </clipPath>
    </defs>
    <path d="M41.65 90.74c-1.22 0-2.45-.88-4.7-3.12-.28-.28-.78-.9-1.44-1.63-.86-1-1.9-2.13-2.6-2.83-1.53-1.53-2.21-1.65-2.85-1.65h-4.13c-6.39 0-12.93-6-12.93-12.39V21.46c0-6.48 6.29-12 13.14-12h48.71c6.64 0 11.15 5.14 11.15 12v47.41c0 7-4.73 12.63-11.15 12.63H46.78c-1.2 0-2.78.38-2.78.79v3.94c0 1.24.25 4.51-2.35 4.51z" class="cls-2"/>
    <path d="M74.85 11.5c5.85 0 10.15 4.11 10.15 10v47.37c0 5.85-4.3 11.63-10.15 11.63H46.78c-1.78 0-3.78.12-3.78 1.79v3.94c0 1.93-.26 3-1.1 3s-1.9-.83-3.76-2.67c-.64-.64-2.89-3-4.13-4.21a5 5 0 0 0-3.94-1.84h-4.14C20.37 80.5 15 74.67 15 69.11V21.46c0-5.85 5.29-10 11.14-10H75m-.15-3H26.14C18.48 8.5 12 14.17 12 21.46v47.65c0 7.27 6.64 14.39 13.93 14.39h4.13c.23 0 .61-.25 1.82 1 .67.67 1.73 1.72 2.58 2.66s1.25 1.32 1.55 1.62c2.2 2.2 4 3.53 5.88 3.53s4.1-1.07 4.1-6v-3.24c.2 0 .47.43.78.43h28.08C82.1 83.5 88 76.66 88 68.87V21.46a12.75 12.75 0 0 0-13.15-13z" class="cls-2"/>
    <path d="M74.35 79.51H25.64A10.67 10.67 0 0 1 15 68.87V21.46a10.67 10.67 0 0 1 10.64-10.64h48.71A10.67 10.67 0 0 1 85 21.46v47.41a10.67 10.67 0 0 1-10.65 10.64" class="cls-2"/>
    <g class="cls-3">
        <path d="M56.22 19c1.34 1.34 2.37 3.31.16 5.6s-4.93.28-5.66-.58c-3.56-3.93-8.55-8.83-13.83-8.83a18.42 18.42 0 0 0-13.05 5.32 17.2 17.2 0 0 0-5.32 12.79 18.15 18.15 0 0 0 18.34 18.39 17.53 17.53 0 0 0 13.76-6.24l5.32-6.06.06-.06.69-.78c1.58-1.69 6.25-9 14.76-9 10.28 0 12.89 7 13.53 8.69V20.57a10 10 0 0 0-10.19-9.75H47c3 1.29 6.82 5.58 9.22 8.18" class="cls-4"/>
        <path d="M52 66.85c.77.9 5.78 6.64 7.17 8s4.08 4 6.08 4.36c.09 0 .08.31 0 .31h-19c-1.74 0-3.67 1.08-3.67 2.76v3.94c0 3.62-1 4.14-4.92.21-.64-.64-2.94-3.33-4.19-4.58-1.59-1.59-2.66-2.32-3.94-2.32h-4.1A10.7 10.7 0 0 1 15 69.11V46.43a52 52 0 0 0 4 5.06A24.88 24.88 0 0 0 36.88 59c7.48 0 13.6-3.16 18.64-8.92 0 0 8.32-9.92 8.25-10 .41-.47.86-.89 1.35-1.38a10.17 10.17 0 0 1 6.25-2.78 8.54 8.54 0 0 1 2.6.3 7.92 7.92 0 0 1 .79.28l.38.17a8.05 8.05 0 0 1 .74.41 8.87 8.87 0 0 1 1.7 1.39 8.31 8.31 0 0 1 2.63 6.2 8.65 8.65 0 0 1-1.19 4.58 7.86 7.86 0 0 1-.45.67 8.21 8.21 0 0 1-.72.82l-.2.19-.42.37-.23.16-.23.17-.44.37-.26.16-.31.17-.34.21-.15.1-.1.05a2 2 0 0 0-1.09 1.58 1.61 1.61 0 0 0 0 .48 1.51 1.51 0 0 0 .52 1.11s.56.42.63.48l.07.05.14.1.34.21.3.17.25.13.49.33.18.19.22.18.42.37.2.19a8.22 8.22 0 0 1 .72.82 7.86 7.86 0 0 1 .45.67 8.65 8.65 0 0 1 1.19 4.58 8.31 8.31 0 0 1-2.63 6.21 8.87 8.87 0 0 1-1.7 1.39 9.32 9.32 0 0 1-4.51 1.5 9.05 9.05 0 0 1-6.05-2.81c-.5-.5-6.68-7.08-7.5-8.11-.58-.81-2.31-3.51-5.41-1.32s-1.17 4.75-.4 5.66" class="cls-5"/>
    </g>
</svg>
