<svg xmlns="http://www.w3.org/2000/svg" id="toggle-off" viewBox="0 0 50 40">
    <defs>
        <style>
            .cls-1{opacity:.3}.cls-2{fill:#f8c1c1}.cls-2,.cls-5{fill-rule:evenodd}.cls-3{opacity:.45}.cls-4{fill:#c46b66}.cls-5{fill:#fff;stroke:#c46b66;stroke-miterlimit:10;stroke-width:2px}
        </style>
    </defs>
    <g class="cls-1">
        <path d="M33.27 31H18.13A11.86 11.86 0 0 1 6.4 19 11.86 11.86 0 0 1 18.13 7h15.14A11.86 11.86 0 0 1 45 19a11.86 11.86 0 0 1-11.73 12z" class="cls-2"/>
    </g>
    <g class="cls-3">
        <path d="M33.27 9A9.88 9.88 0 0 1 43 19a9.88 9.88 0 0 1-9.73 10H18.13A9.88 9.88 0 0 1 8.4 19a9.88 9.88 0 0 1 9.73-10h15.14m0-2H18.13A11.86 11.86 0 0 0 6.4 19a11.86 11.86 0 0 0 11.73 12h15.14A11.86 11.86 0 0 0 45 19 11.86 11.86 0 0 0 33.27 7z" class="cls-4"/>
    </g>
    <path d="M15.9 29.8a11 11 0 1 1 10.89-11 10.94 10.94 0 0 1-10.89 11z" class="cls-5"/>
</svg>
